<svg xmlns="http://www.w3.org/2000/svg" width="15" height="17" viewBox="0 0 1092 1024">
    <path d="M135.159395 994.949378a27.389849 27.389849 0 0 0 27.424269 27.381244 27.389849 27.389849 0 0 0 27.432874-27.381244V323.558185c76.722555-13.131294 135.606857-79.682689 135.606857-160.053782C325.61479 73.79684 252.471933 0.998185 162.807395 0.998185 73.142857 0.998185 0 73.79684 0 163.504403c0 80.371092 58.660571 146.922487 135.598252 160.053782v671.391193h-0.438857zM54.194555 163.504403c0-59.435025 48.618487-107.967462 108.165378-107.967462s108.173983 48.532437 108.173983 107.967462c0 59.435025-48.618487 107.967462-108.165378 107.967463S54.20316 223.16316 54.20316 163.495798z m653.036638 696.32c0 89.492437-73.607529 162.506218-163.263462 162.506219-89.664538 0-162.807395-72.798655-162.807395-162.506219 0-80.362487 58.875697-146.922487 135.598252-160.053781V28.379429A27.389849 27.389849 0 0 1 544.182857 0.998185a27.389849 27.389849 0 0 1 27.432874 27.381244v671.391193c76.946286 13.131294 135.598252 79.691294 135.598252 160.053781z m-270.989983 0c0 59.435025 48.618487 107.967462 108.165378 107.967463s108.173983-48.532437 108.173983-107.967463c0-59.435025-48.618487-107.967462-108.165378-107.967462s-108.165378 48.532437-108.165378 107.967462z m492.896807 162.506219c-15.170689 0-27.432874-12.244975-26.985412-27.381244V323.558185c-76.946286-13.131294-135.606857-79.682689-135.606857-160.053782 0-89.707563 73.160067-162.506218 162.807395-162.506218 89.664538 0 162.816 72.798655 162.816 162.506218 0 80.371092-58.875697 146.922487-135.598252 160.053782v671.391193a27.389849 27.389849 0 0 1-27.432874 27.381244z m-108.165378-858.826219c0 59.658756 48.394756 107.967462 108.165378 107.967463 59.546891 0 108.165378-48.532437 108.165378-107.967463 0-59.435025-48.618487-107.967462-108.165378-107.967462s-108.165378 48.532437-108.165378 107.967462z" fill="#20A0FF" />
</svg>