<svg width="17" height="19" viewBox="0 0 17 19" fill="none" xmlns="http://www.w3.org/2000/svg">
<g clip-path="url(#clip0_58_136)">
<path d="M5.76786 2.375H11.2321V0.890625C11.2321 0.398926 11.6382 0 12.1429 0C12.6475 0 13.0536 0.398926 13.0536 0.890625V2.375H14.5714C15.9109 2.375 17 3.43818 17 4.75V16.625C17 17.935 15.9109 19 14.5714 19H2.42857C1.08717 19 0 17.935 0 16.625V4.75C0 3.43818 1.08717 2.375 2.42857 2.375H3.94643V0.890625C3.94643 0.398926 4.35246 0 4.85714 0C5.36183 0 5.76786 0.398926 5.76786 0.890625V2.375ZM1.82143 9.20312H4.85714V7.125H1.82143V9.20312ZM1.82143 10.9844V13.3594H4.85714V10.9844H1.82143ZM6.67857 10.9844V13.3594H10.3214V10.9844H6.67857ZM12.1429 10.9844V13.3594H15.1786V10.9844H12.1429ZM15.1786 7.125H12.1429V9.20312H15.1786V7.125ZM15.1786 15.1406H12.1429V17.2188H14.5714C14.9054 17.2188 15.1786 16.9516 15.1786 16.625V15.1406ZM10.3214 15.1406H6.67857V17.2188H10.3214V15.1406ZM4.85714 15.1406H1.82143V16.625C1.82143 16.9516 2.09313 17.2188 2.42857 17.2188H4.85714V15.1406ZM10.3214 7.125H6.67857V9.20312H10.3214V7.125Z" fill="#888888"/>
</g>
<defs>
<clipPath id="clip0_58_136">
<rect width="17" height="19" fill="white"/>
</clipPath>
</defs>
</svg>
