<svg width="19" height="18" viewBox="0 0 19 18" fill="none" xmlns="http://www.w3.org/2000/svg">
<g clip-path="url(#clip0_58_11)">
<path d="M3.72184 8.74939L5.48114 12.4222L5.44937 15.0346C5.44702 15.2473 5.52916 15.4523 5.67777 15.6046C5.82638 15.7569 6.02933 15.844 6.24208 15.8468L12.6619 15.9249C12.8746 15.9272 13.0796 15.8451 13.2319 15.6965C13.3842 15.5478 13.4713 15.3449 13.4741 15.1321L13.5059 12.5197L15.354 8.89085C15.4211 8.75978 15.4507 8.61274 15.4396 8.46591C15.4284 8.31909 15.377 8.17819 15.2909 8.05875L9.85472 0.482919C9.85219 0.479394 9.84874 0.476804 9.84605 0.473441C9.8377 0.462749 9.82854 0.452713 9.81865 0.443422C9.81354 0.438657 9.80829 0.434348 9.80286 0.430037C9.79287 0.42218 9.78234 0.415034 9.77136 0.408652C9.76557 0.405284 9.75996 0.401852 9.75392 0.398937C9.74144 0.393016 9.72851 0.388087 9.71525 0.384195C9.7099 0.382531 9.70482 0.380346 9.69936 0.379039C9.66082 0.369295 9.62052 0.368805 9.58175 0.377608C9.57626 0.378782 9.57114 0.380843 9.56575 0.382377C9.5524 0.385946 9.53934 0.390558 9.52671 0.396174C9.52061 0.398941 9.51493 0.402236 9.50907 0.405463C9.49792 0.411559 9.48721 0.418448 9.47704 0.426075C9.47151 0.430252 9.46615 0.434432 9.46093 0.439072C9.45082 0.448119 9.44141 0.457929 9.4328 0.468415C9.43003 0.471712 9.42653 0.474218 9.4239 0.47768L3.80518 7.91907C3.71618 8.03638 3.66129 8.17598 3.64659 8.32249C3.63188 8.46901 3.65792 8.61673 3.72184 8.74939ZM12.6684 15.3899L6.24859 15.3118C6.17767 15.3109 6.11002 15.2818 6.06048 15.2311C6.01094 15.1803 5.98356 15.112 5.98435 15.0411L6.01363 12.6337L12.9684 12.7182L12.9391 15.1256C12.9382 15.1966 12.9091 15.2642 12.8584 15.3138C12.8076 15.3633 12.7393 15.3907 12.6684 15.3899ZM9.55606 7.32613C9.76768 7.3287 9.97379 7.39397 10.1483 7.51368C10.3228 7.63339 10.4579 7.80216 10.5365 7.99865C10.6152 8.19515 10.6337 8.41054 10.5899 8.61759C10.5461 8.82464 10.4419 9.01405 10.2904 9.16187C10.139 9.30968 9.94708 9.40927 9.73903 9.44803C9.53097 9.48679 9.3161 9.46299 9.12157 9.37963C8.92705 9.29627 8.76161 9.15709 8.64618 8.97971C8.53075 8.80233 8.47052 8.5947 8.47309 8.38308C8.47686 8.09941 8.593 7.82882 8.79603 7.63067C8.99905 7.43253 9.27239 7.323 9.55606 7.32613ZM4.23211 8.2415L9.35999 1.45016L9.2948 6.81062C8.89719 6.87286 8.53747 7.08221 8.28693 7.39717C8.03639 7.71213 7.91332 8.10971 7.94209 8.51113C7.97087 8.91256 8.1494 9.28852 8.4423 9.56452C8.73521 9.84052 9.12111 9.99642 9.52353 10.0013C9.92595 10.0062 10.3155 9.85974 10.6151 9.59095C10.9146 9.32215 11.1022 8.95064 11.1407 8.55003C11.1793 8.14943 11.0659 7.74897 10.8231 7.42801C10.5803 7.10705 10.2258 6.88902 9.82978 6.81712L9.89497 1.45667L14.8562 8.37063C14.8849 8.41044 14.9021 8.45741 14.9058 8.50636C14.9095 8.55531 14.8996 8.60433 14.8772 8.64802L13.0762 12.1845L5.91884 12.0974L4.20435 8.51829C4.18304 8.47407 4.17435 8.42483 4.17925 8.37599C4.18415 8.32714 4.20244 8.2806 4.23211 8.2415Z" fill="#888888" stroke="#888888"/>
</g>
<defs>
<clipPath id="clip0_58_11">
<rect width="17.1207" height="17.1207" fill="white" transform="translate(17.9961 17.3276) rotate(-179.303)"/>
</clipPath>
</defs>
</svg>
