<svg width="19" height="19" viewBox="0 0 19 19" fill="none" xmlns="http://www.w3.org/2000/svg">
<g clip-path="url(#clip0_58_121)">
<path d="M9.5 13.0625C10.8805 13.0625 11.8453 12.4131 12.4094 11.8045C12.7396 11.4445 13.3037 11.4186 13.6674 11.7525C14.0273 12.0865 14.0496 12.6506 13.7156 13.0105C12.9029 13.8975 11.4928 14.8438 9.5 14.8438C7.50723 14.8438 6.09707 13.8975 5.28437 13.0105C4.95039 12.6506 4.93926 12.0865 5.33262 11.7525C5.69629 11.4186 6.26035 11.4445 6.59063 11.8045C7.15469 12.4131 8.11953 13.0625 9.5 13.0625ZM7.73359 7.71875C7.73359 8.37559 7.19922 8.90625 6.54609 8.90625C5.88926 8.90625 5.35859 8.37559 5.35859 7.71875C5.35859 7.06191 5.88926 6.53125 6.54609 6.53125C7.19922 6.53125 7.73359 7.06191 7.73359 7.71875ZM11.2961 7.71875C11.2961 7.06191 11.8268 6.53125 12.4836 6.53125C13.1367 6.53125 13.6711 7.06191 13.6711 7.71875C13.6711 8.37559 13.1367 8.90625 12.4836 8.90625C11.8268 8.90625 11.2961 8.37559 11.2961 7.71875ZM19 9.5C19 14.7473 14.7473 19 9.5 19C4.25273 19 0 14.7473 0 9.5C0 4.25273 4.25273 0 9.5 0C14.7473 0 19 4.25273 19 9.5ZM9.5 1.78125C5.23613 1.78125 1.78125 5.23613 1.78125 9.5C1.78125 13.7639 5.23613 17.2188 9.5 17.2188C13.7639 17.2188 17.2188 13.7639 17.2188 9.5C17.2188 5.23613 13.7639 1.78125 9.5 1.78125Z" fill="#0036B9"/>
</g>
<defs>
<clipPath id="clip0_58_121">
<rect width="19" height="19" fill="white"/>
</clipPath>
</defs>
</svg>
