<svg width="24" height="21" viewBox="0 0 24 21" fill="none" xmlns="http://www.w3.org/2000/svg">
<path d="M11.9958 0C12.3792 0 12.7292 0.215332 12.8958 0.554531L15.7542 6.34922L22.1417 7.28027C22.5167 7.33359 22.825 7.59199 22.9459 7.94473C23.0625 8.30156 22.9667 8.69121 22.7 8.94961L18.0667 13.4695L19.1625 19.8475C19.225 20.2166 19.0709 20.5939 18.7584 20.8113C18.45 21.0287 18.0042 21.0574 17.7042 20.8811L11.9958 17.8787L6.25418 20.8811C5.95418 21.0574 5.54585 21.0287 5.23335 20.8113C4.92502 20.5939 4.77085 20.2166 4.79585 19.8475L5.92502 13.4695L1.29627 8.94961C1.0271 8.69121 0.931682 8.30156 1.05002 7.94473C1.16793 7.59199 1.47918 7.33359 1.85377 7.28027L8.23752 6.34922L11.0958 0.554531C11.2667 0.215291 11.6125 0 11.9958 0ZM11.9958 3.23818L9.80835 7.67812C9.66252 7.96934 9.37918 8.17441 9.05418 8.22363L4.12418 8.9373L7.70418 12.4277C7.93335 12.6533 8.03752 12.9773 7.98335 13.2932L7.14168 18.1986L11.525 15.8936C11.8208 15.7377 12.175 15.7377 12.4667 15.8936L16.85 18.1986L16.0083 13.2932C15.9542 12.9773 16.0625 12.6533 16.2917 12.4277L19.8708 8.9373L14.9417 8.22363C14.6125 8.17441 14.3292 7.96934 14.1875 7.67812L11.9958 3.23818Z" fill="#0036B9"/>
</svg>
