<svg width="13" height="15" viewBox="0 0 13 15" fill="none" xmlns="http://www.w3.org/2000/svg">
<g clip-path="url(#clip0_58_97)">
<path d="M7.89286 8.90625H5.10714C2.28661 8.90625 0 11.2148 0 14.0625C0 14.5802 0.415826 15 0.928571 15H12.0714C12.5842 15 13 14.5802 13 14.0625C13 11.2148 10.7134 8.90625 7.89286 8.90625ZM1.42158 13.5938C1.65083 11.7451 3.21518 10.3125 5.10714 10.3125H7.89286C9.78366 10.3125 11.3489 11.7466 11.5781 13.5938H1.42158ZM6.5 7.5C8.55127 7.5 10.2143 5.821 10.2143 3.75C10.2143 1.679 8.55127 0 6.5 0C4.44873 0 2.78571 1.679 2.78571 3.75C2.78571 5.82129 4.44844 7.5 6.5 7.5ZM6.5 1.40625C7.77998 1.40625 8.82143 2.45771 8.82143 3.75C8.82143 5.04228 7.77998 6.09375 6.5 6.09375C5.22002 6.09375 4.17857 5.04199 4.17857 3.75C4.17857 2.45771 5.22031 1.40625 6.5 1.40625Z" fill="#888888"/>
</g>
<defs>
<clipPath id="clip0_58_97">
<rect width="13" height="15" fill="white"/>
</clipPath>
</defs>
</svg>
